<svg width="821" height="183" viewBox="0 0 821 183" fill="none" xmlns="http://www.w3.org/2000/svg">
<path d="M98.3653 148L55.275 98.1817V148H37.0137V36.6699H55.275V87.4492L98.5255 36.6699H121.432L73.0558 92.415L122.233 148H98.3653Z" fill="#10E04C"/>
<path d="M196.21 148L170.58 103.468H156.643V148H138.382V36.6699H176.827C185.37 36.6699 192.579 38.165 198.452 41.1552C204.432 44.1453 208.864 48.15 211.748 53.1692C214.738 58.1884 216.233 63.7949 216.233 69.9888C216.233 77.2506 214.097 83.8717 209.825 89.852C205.661 95.7256 199.2 99.7302 190.443 101.866L217.995 148H196.21ZM156.643 88.8909H176.827C183.662 88.8909 188.788 87.1822 192.205 83.7649C195.729 80.3476 197.491 75.7556 197.491 69.9888C197.491 64.2221 195.782 59.7369 192.365 56.5331C188.948 53.2226 183.768 51.5673 176.827 51.5673H156.643V88.8909Z" fill="#10E04C"/>
<path d="M341.697 149.121C334.221 149.121 327.493 147.84 321.513 145.277C315.533 142.607 310.834 138.869 307.417 134.064C303.999 129.258 302.291 123.652 302.291 117.244H321.833C322.261 122.05 324.129 126.001 327.44 129.098C330.857 132.195 335.609 133.743 341.697 133.743C347.997 133.743 352.91 132.248 356.434 129.258C359.958 126.161 361.72 122.21 361.72 117.404C361.72 113.667 360.599 110.623 358.356 108.274C356.22 105.924 353.497 104.109 350.186 102.827C346.983 101.546 342.497 100.157 336.731 98.6623C329.469 96.7401 323.542 94.8179 318.95 92.8956C314.465 90.8666 310.62 87.7696 307.417 83.6048C304.213 79.4399 302.611 73.8867 302.611 66.9453C302.611 60.5378 304.213 54.9313 307.417 50.1257C310.62 45.3201 315.105 41.6358 320.872 39.0728C326.639 36.5098 333.313 35.2283 340.896 35.2283C351.682 35.2283 360.492 37.9514 367.326 43.3978C374.268 48.7374 378.112 56.106 378.86 65.5036H358.676C358.356 61.4456 356.434 57.9748 352.91 55.0915C349.386 52.2081 344.74 50.7664 338.973 50.7664C333.741 50.7664 329.469 52.1013 326.158 54.7711C322.848 57.4409 321.193 61.2854 321.193 66.3046C321.193 69.7219 322.207 72.5519 324.236 74.7945C326.372 76.9303 329.042 78.639 332.246 79.9205C335.449 81.202 339.828 82.5902 345.381 84.0853C352.749 86.1144 358.73 88.1434 363.322 90.1724C368.021 92.2015 371.972 95.3518 375.176 99.6235C378.486 103.788 380.141 109.395 380.141 116.443C380.141 122.103 378.593 127.443 375.496 132.462C372.506 137.481 368.074 141.539 362.2 144.636C356.434 147.626 349.599 149.121 341.697 149.121Z" fill="#10E04C"/>
<path d="M463.132 125.253H416.518L408.509 148H389.446L429.333 36.5098H450.478L490.364 148H471.142L463.132 125.253ZM458.006 110.356L439.905 58.6156L421.644 110.356H458.006Z" fill="#10E04C"/>
<path d="M785.554 146.772H767.292L712.348 63.6346V146.772H694.087V35.2815H712.348L767.292 118.258V35.2815H785.554V146.772Z" fill="#10E04C"/>
<path d="M621.866 147.893C611.508 147.893 601.95 145.49 593.193 140.685C584.543 135.772 577.655 128.991 572.529 120.341C567.51 111.584 565 101.759 565 90.8664C565 79.9737 567.51 70.2023 572.529 61.5522C577.655 52.9021 584.543 46.1742 593.193 41.3686C601.95 36.4562 611.508 34 621.866 34C632.332 34 641.89 36.4562 650.54 41.3686C659.297 46.1742 666.185 52.9021 671.204 61.5522C676.223 70.2023 678.733 79.9737 678.733 90.8664C678.733 101.759 676.223 111.584 671.204 120.341C666.185 128.991 659.297 135.772 650.54 140.685C641.89 145.49 632.332 147.893 621.866 147.893ZM621.866 132.034C629.235 132.034 635.803 130.379 641.569 127.069C647.336 123.651 651.821 118.846 655.025 112.652C658.336 106.351 659.991 99.0893 659.991 90.8664C659.991 82.6435 658.336 75.4351 655.025 69.2412C651.821 63.0473 647.336 58.295 641.569 54.9845C635.803 51.674 629.235 50.0187 621.866 50.0187C614.498 50.0187 607.93 51.674 602.163 54.9845C596.397 58.295 591.858 63.0473 588.547 69.2412C585.344 75.4351 583.742 82.6435 583.742 90.8664C583.742 99.0893 585.344 106.351 588.547 112.652C591.858 118.846 596.397 123.651 602.163 127.069C607.93 130.379 614.498 132.034 621.866 132.034Z" fill="#10E04C"/>
<path d="M564.51 36.6699L527.667 107.633V148H509.406V107.633L472.403 36.6699H492.747L518.537 91.2937L544.327 36.6699H564.51Z" fill="#10E04C"/>
<path d="M251.275 36.6699V148H233.014V36.6699H251.275Z" fill="#10E04C"/>
<path d="M284.275 36.6699V148H266.014V36.6699H284.275Z" fill="#10E04C"/>
<path d="M803 18H821V165H803V18Z" fill="#10E04C"/>
<path d="M0 18H18V165H0L0 18Z" fill="#10E04C"/>
<path d="M0 183L0 165L821 165V183L0 183Z" fill="#10E04C"/>
<path d="M266 0L284 0V31H266V0Z" fill="#10E04C"/>
<path d="M233 0L251 0V31H233V0Z" fill="#10E04C"/>
<path d="M266 18V0L323 0V18L266 18Z" fill="#10E04C"/>
<path d="M316 18V0L821 0V18L316 18Z" fill="#10E04C"/>
<path d="M0 18L0 0L233 0V18L0 18Z" fill="#10E04C"/>
</svg>
